<?xml version="1.0" encoding="utf-8"?>
<!-- Generator: Adobe Illustrator 22.1.0, SVG Export Plug-In . SVG Version: 6.00 Build 0)  -->
<svg version="1.1"
	 id="svg8" inkscape:export-filename="C:\Users\Igor Halfeld\Desktop\bitmap.png" inkscape:export-xdpi="96" inkscape:export-ydpi="96" inkscape:version="0.92.3 (2405546, 2018-03-11)" sodipodi:docname="serverless.svg" xmlns:cc="http://creativecommons.org/ns#" xmlns:dc="http://purl.org/dc/elements/1.1/" xmlns:inkscape="http://www.inkscape.org/namespaces/inkscape" xmlns:rdf="http://www.w3.org/1999/02/22-rdf-syntax-ns#" xmlns:sodipodi="http://sodipodi.sourceforge.net/DTD/sodipodi-0.dtd" xmlns:svg="http://www.w3.org/2000/svg"
	 xmlns="http://www.w3.org/2000/svg" xmlns:xlink="http://www.w3.org/1999/xlink" x="0px" y="0px" viewBox="0 0 1048.5 361.2"
	 style="enable-background:new 0 0 1048.5 361.2;" xml:space="preserve">
<style type="text/css">
	.st0{fill:#F9CA24;}
	.st1{font-family:'Bangers-Regular';}
	.st2{font-size:144px;}
	.st3{fill:#FFFFFF;}
</style>
<sodipodi:namedview  bordercolor="#666666" borderopacity="1.0" fit-margin-bottom="0" fit-margin-left="0" fit-margin-right="0" fit-margin-top="0" id="base" inkscape:current-layer="layer1" inkscape:cx="591.50181" inkscape:cy="584.03134" inkscape:document-units="mm" inkscape:pageopacity="0.0" inkscape:pageshadow="2" inkscape:window-height="705" inkscape:window-maximized="1" inkscape:window-width="1366" inkscape:window-x="-8" inkscape:window-y="-8" inkscape:zoom="0.35" pagecolor="#ffffff" showgrid="false">
	</sodipodi:namedview>
<g id="g1002" transform="translate(20.445139,40.065477)">
	<text transform="matrix(1 0 0 1 57.5998 200.9794)" class="st0 st1 st2">SERVERLESS  </text>
	<text transform="matrix(1 0 0 1 671.7443 200.9794)" class="st3 st1 st2">WEEK</text>
	<path id="path901" inkscape:connector-curvature="0" class="st3" d="M697.9,51.5L591.8,160.2c-0.9,0.9-0.9,2.3,0,3.3
		c0.5,0.5,1.2,0.7,1.9,0.7l51.2-7.9c0.7,0,1.2,0.2,1.4,0.9c0,0.2,0,0.5-0.2,0.7l-53.7,83.4c-0.7,1.2-0.5,2.6,0.7,3.3
		c0.9,0.7,2.1,0.5,3-0.5l107.7-117.5c0.9-0.9,0.7-2.3-0.2-3.3c-0.5-0.5-1.2-0.7-1.9-0.7l-51.4,7.9c-0.7,0-1.2-0.2-1.4-0.9
		c0-0.2,0-0.7,0.2-0.9l52.3-74.3c0.7-1.2,0.5-2.6-0.5-3.3C700,50.6,698.6,50.6,697.9,51.5L697.9,51.5z"/>
</g>
</svg>
